<?xml version="1.0" encoding="UTF-8"?>
<svg width="53px" height="41px" viewBox="0 0 53 41" version="1.1" xmlns="http://www.w3.org/2000/svg" xmlns:xlink="http://www.w3.org/1999/xlink">
    <!-- Generator: Sketch 52.5 (67469) - http://www.bohemiancoding.com/sketch -->
    <title>Atoms/Icons/Actions/See contacts Copy</title>
    <desc>Created with Sketch.</desc>
    <g id="Page-1" stroke="none" stroke-width="1" fill="none" fill-rule="evenodd" stroke-linejoin="round">
        <g id="contacts" transform="translate(-10.000000, -16.000000)" stroke="#000">
            <g id="Group-3" transform="translate(-12.000000, -5.000000)">
                <g id="Atoms/Icons/Actions/Contacts-Card" transform="translate(22.000000, 16.000000)">
                    <g id="Group-284" transform="translate(0.000000, 5.300000)">
                        <path d="M1.10416667,1.10416667 L1.10416667,38.6458333 L9.9375,38.6458333 L9.9375,35.3333333 C9.9375,33.2089167 11.6754583,31.46875 13.8020833,31.46875 C15.9265,31.46875 17.6666667,33.2089167 17.6666667,35.3333333 L17.6666667,38.6458333 L35.3333333,38.6458333 L35.3333333,35.3333333 C35.3333333,33.2089167 37.0712917,31.46875 39.1979167,31.46875 C41.3223333,31.46875 43.0625,33.2089167 43.0625,35.3333333 L43.0625,38.6458333 L51.8958333,38.6458333 L51.8958333,1.10416667 L1.10416667,1.10416667 L1.10416667,1.10416667 Z" id="Stroke-5848" stroke-width="2.20833333"></path>
                        <path d="M28.7083333,23.1875 L46.375,23.1875" id="Stroke-5849" stroke-width="2.20833333"></path>
                        <path d="M28.7083333,18.7708333 L46.375,18.7708333" id="Stroke-5850" stroke-width="2.20833333"></path>
                        <path d="M28.7083333,14.3541667 L46.375,14.3541667" id="Stroke-5851" stroke-width="2.20833333"></path>
                        <path d="M28.7083333,9.9375 L37.5416667,9.9375" id="Stroke-5852" stroke-width="2.20833333"></path>
                        <path d="M15.4583333,25.3958333 L5.52083333,25.3958333 L5.52083333,20.9791667 C5.52083333,20.9791667 8.83333333,17.6666667 13.25,17.6666667 L13.25,15.4583333 C13.25,15.4583333 11.0416667,14.3541667 11.0416667,11.0416667 C11.0416667,8.83333333 11.0416667,6.625 15.4583333,6.625 C19.875,6.625 19.875,8.83333333 19.875,11.0416667 C19.875,14.3541667 17.6666667,15.4583333 17.6666667,15.4583333 L17.6666667,17.6666667 C22.0833333,17.6666667 25.3958333,20.9791667 25.3958333,20.9791667 L25.3958333,25.3958333 L15.4583333,25.3958333 L15.4583333,25.3958333 Z" id="Stroke-5853" stroke-width="2.20833333" stroke-linecap="round"></path>
                    </g>
                </g>
            </g>
        </g>
    </g>
</svg>